<?xml version="1.0" encoding="utf-8"?>
<!-- Generator: Adobe Illustrator 16.0.0, SVG Export Plug-In . SVG Version: 6.00 Build 0)  -->
<!DOCTYPE svg PUBLIC "-//W3C//DTD SVG 1.1//EN" "http://www.w3.org/Graphics/SVG/1.1/DTD/svg11.dtd">
<svg version="1.1" xmlns="http://www.w3.org/2000/svg" xmlns:xlink="http://www.w3.org/1999/xlink" x="0px" y="0px" width="875px"
	 height="865.445px" viewBox="171.775 0 875 865.445" enable-background="new 171.775 0 875 865.445" xml:space="preserve">
<g id="Calque_1">
	<g>
		
			<image overflow="visible" opacity="0.4" enable-background="new    " width="521" height="521" xlink:href="6B643C8A.png"  transform="matrix(1.8702 0 0 1.8702 124.1445 -42.4629)">
		</image>
	</g>
	<path opacity="0.2" fill="#FFFFFF" enable-background="new    " d="M275.227,330.218c4.847-143.798,167.568-254.975,330.13-249.499
		c162.564,5.468,317.393,127.385,312.57,271.16c-4.879,143.798-93.379,175.672-327.354,167.788
		C357.74,511.814,270.372,474.023,275.227,330.218z"/>
	<path opacity="0.7" fill="#FFFFFF" enable-background="new    " d="M470.537,131.94c1.078-30.741,61.388-53.7,134.812-51.221
		c73.402,2.439,132.076,29.435,131.006,60.175c-0.977,30.812-60.215,20.001-133.578,17.491
		C529.313,155.938,469.53,162.713,470.537,131.94z"/>
	<g>
		
			<image overflow="visible" opacity="0.75" enable-background="new    " width="229" height="258" xlink:href="6B643C8E.png"  transform="matrix(1.8389 0 0 1.8737 255.2109 191.1855)">
		</image>
		<g>
			<path fill="#FFFFFF" d="M476.564,528.534l-188.961-6.365l2.471-73.74l201.889-224.855l81.049,2.699l-8.041,238.821l59.388,1.983
				l-2.242,66.359l-59.365-1.967l-3.092,91.853l-86.195-2.903L476.564,528.534z M483.434,324.363l-1.889-0.063L361.359,458.225
				l117.455,3.934L483.434,324.363z"/>
		</g>
	</g>
	<g>
		
			<image overflow="visible" opacity="0.75" enable-background="new    " width="188" height="171" xlink:href="6B643C89.png"  transform="matrix(1.8381 0 0 1.8442 598.7261 316.9434)">
		</image>
		<g>
			<path fill="#FFFFFF" d="M725.378,457.736l-78.957-108.407l78.604,2.668l42.164,59.695l45.691-56.761l76.203,2.604
				l-86.008,101.499l88.705,121.68l-78.641-2.627l-50.051-72.025l-54.801,68.508l-77.178-2.612L725.378,457.736z"/>
		</g>
	</g>
</g>
<g id="Calque_2">
	<g id="Calque_2_1_">
		<g>
			<g>
				
					<radialGradient id="SVGID_1_" cx="29.3687" cy="803.2441" r="48.6904" gradientTransform="matrix(7.8682 0 0 -7.8682 362.6202 6743.5117)" gradientUnits="userSpaceOnUse">
					<stop  offset="0.578" style="stop-color:#7272BA"/>
					<stop  offset="1" style="stop-color:#3A39A1"/>
				</radialGradient>
				<circle fill="url(#SVGID_1_)" cx="593.697" cy="423.447" r="383.107"/>
			</g>
		</g>
		<path opacity="0.2" fill="#FFFFFF" enable-background="new    " d="M275.226,326.566
			C280.073,182.769,442.793,71.591,605.35,77.068c162.563,5.469,317.393,127.385,312.568,271.159
			c-4.877,143.798-93.379,175.672-327.354,167.788C357.739,508.162,270.372,470.371,275.226,326.566z"/>
		<path opacity="0.7" fill="#FFFFFF" enable-background="new    " d="M470.538,128.289c1.078-30.741,61.387-53.7,134.813-51.222
			c73.402,2.44,132.076,29.436,131.006,60.176c-0.977,30.812-60.215,20-133.57,17.49
			C529.312,152.287,469.529,159.061,470.538,128.289z"/>
		<g>
			
				<image overflow="visible" opacity="0.75" enable-background="new    " width="345" height="248" xlink:href="6B643C8B.png"  transform="matrix(1.4102 0 0 1.4086 263.2085 283.8311)">
			</image>
			<g>
				<g>
					<g>
						<g>
							<path fill="#FFFFFF" d="M288.759,586.562l0.716-34.203c17.923-18.042,35.989-35.87,54.203-53.473
								c18.199-17.601,34.967-35.596,50.262-53.998c7.805-9.772,14.516-19.435,20.126-28.963c5.61-9.536,8.545-20.442,8.804-32.715
								c0.236-11.103-2.872-19.945-9.307-26.517c-6.443-6.563-15.807-9.984-28.082-10.236c-10.819-0.228-21.346,3.502-31.598,11.181
								c-10.244,7.68-19.316,18.019-27.192,31.017l-47.248-26.869c4.862-8.963,10.819-17.539,17.861-25.722
								c7.042-8.19,15.24-15.256,24.58-21.197c9.332-5.948,19.883-10.623,31.662-14.028c11.763-3.407,24.816-4.964,39.129-4.658
								c12.566,0.267,24.446,2.266,35.626,6.011c11.182,3.744,20.866,9.214,29.041,16.396c8.19,7.191,14.65,15.957,19.411,26.287
								c4.752,10.339,6.995,22.229,6.712,35.674c-0.347,16.665-4.352,32.739-11.983,48.225c-7.64,15.484-17.75,30.552-30.339,45.203
								c-10.504,12.352-21.637,23.824-33.408,34.391c-11.771,10.574-22.44,20.731-32.008,30.465l112.687,2.369l-1.039,49.546
								L288.759,586.562z"/>
							<path fill="#FFFFFF" d="M498.185,517.707l0.912-43.408l141.706-168.104l47.352,0.991l-3.447,163.988l30.262,0.638
								l-1.063,50.419l-30.262-0.638l-1.535,73.229l-57.438-1.204l1.535-73.229L498.185,517.707z M566.333,468.688l60.938,1.283
								l1.621-77.17L566.333,468.688z"/>
						</g>
					</g>
				</g>
			</g>
		</g>
		<g>
			
				<image overflow="visible" opacity="0.75" enable-background="new    " width="171" height="167" xlink:href="6B643C88.png"  transform="matrix(1.406 0 0 1.4058 712.9497 381.418)">
			</image>
			<g>
				<g>
					<g>
						<g>
							<path fill="#FFFFFF" d="M729.469,573.759l69.145-87.061l-66.492-92.145l54.65,1.148l40.098,56.257l42.432-54.526
								l49.814,1.047l-67.266,85.982l66.479,93.262l-54.652-1.148l-40.449-57.383L780.04,574.82L729.469,573.759z"/>
						</g>
					</g>
				</g>
			</g>
		</g>
	</g>
</g>
</svg>
