<?xml version="1.0" encoding="utf-8"?>
<!-- Generator: Adobe Illustrator 16.0.0, SVG Export Plug-In . SVG Version: 6.00 Build 0)  -->
<!DOCTYPE svg PUBLIC "-//W3C//DTD SVG 1.1//EN" "http://www.w3.org/Graphics/SVG/1.1/DTD/svg11.dtd">
<svg version="1.1" id="Calque_1" xmlns="http://www.w3.org/2000/svg" xmlns:xlink="http://www.w3.org/1999/xlink" x="0px" y="0px"
	 width="875px" height="865.445px" viewBox="171.775 0 875 865.445" enable-background="new 171.775 0 875 865.445"
	 xml:space="preserve">
<g>
	
		<image overflow="visible" opacity="0.4" enable-background="new    " width="521" height="521" xlink:href="9C0B2B38.png"  transform="matrix(1.8702 0 0 1.8702 124.1445 -42.4629)">
	</image>
	<g>
		
			<radialGradient id="SVGID_1_" cx="29.3687" cy="802.7832" r="48.6907" gradientTransform="matrix(7.8681 0 0 -7.8681 362.6202 6743.5015)" gradientUnits="userSpaceOnUse">
			<stop  offset="0.5583" style="stop-color:#B8DAEE"/>
			<stop  offset="0.7332" style="stop-color:#8FC8E8"/>
			<stop  offset="0.9066" style="stop-color:#6CBAE4"/>
			<stop  offset="1" style="stop-color:#5FB4E2"/>
		</radialGradient>
		<circle fill="url(#SVGID_1_)" cx="593.697" cy="427.098" r="383.107"/>
	</g>
</g>
<path opacity="0.2" fill="#FFFFFF" enable-background="new    " d="M275.227,330.218c4.847-143.798,167.568-254.975,330.13-249.499
	c162.564,5.468,317.393,127.385,312.57,271.16c-4.879,143.798-93.379,175.672-327.354,167.788
	C357.74,511.814,270.372,474.023,275.227,330.218z"/>
<path opacity="0.7" fill="#FFFFFF" enable-background="new    " d="M470.537,131.94c1.078-30.741,61.388-53.7,134.812-51.221
	c73.402,2.439,132.076,29.435,131.006,60.175c-0.977,30.812-60.215,20.001-133.578,17.491
	C529.313,155.938,469.53,162.713,470.537,131.94z"/>
<g>
	
		<image overflow="visible" opacity="0.75" enable-background="new    " width="229" height="258" xlink:href="9C0B2B3F.png"  transform="matrix(1.8389 0 0 1.8737 255.2109 191.1855)">
	</image>
	<g>
		<path fill="#FFFFFF" d="M476.564,528.534l-188.961-6.365l2.471-73.74l201.889-224.855l81.049,2.699l-8.041,238.821l59.388,1.983
			l-2.242,66.359l-59.365-1.967l-3.092,91.853l-86.195-2.903L476.564,528.534z M483.434,324.363l-1.889-0.063L361.359,458.225
			l117.455,3.934L483.434,324.363z"/>
	</g>
</g>
<g>
	
		<image overflow="visible" opacity="0.75" enable-background="new    " width="188" height="171" xlink:href="9C0B2B3B.png"  transform="matrix(1.8381 0 0 1.8442 598.7261 316.9434)">
	</image>
	<g>
		<path fill="#FFFFFF" d="M725.378,457.736l-78.957-108.407l78.604,2.668l42.164,59.695l45.691-56.761l76.203,2.604l-86.008,101.499
			l88.705,121.68l-78.641-2.627l-50.051-72.025l-54.801,68.508l-77.178-2.612L725.378,457.736z"/>
	</g>
</g>
</svg>
